<svg xmlns="http://www.w3.org/2000/svg" viewBox="0 0 160.68 137.7"><defs><style>.cls-1{fill:#c69c6d;}.cls-2,.cls-3{fill:#fff;}.cls-3{stroke:#020000;stroke-miterlimit:10;stroke-width:2px;}.cls-4{fill:#e0b892;}.cls-5{fill:#070000;}</style></defs><title>arjan-logo_3</title><g id="Layer_2" data-name="Layer 2"><g id="Layer_1-2" data-name="Layer 1"><path class="cls-1" d="M80.82,132.47c17.47,0,33.06,7.45,46.76-7.66,10.65-11.74,18.42-28.26,15.9-44.14-2.6-16.41-3.49-33.58.79-49.61.93-3.48,2.4-15.59,4.54-17.86,3.6-3.83,15.62.52,10.71-5.77-2.57-3.3-17-8-21.25-7.38-7.83,1.09-9,11.48-15.7,14-5.84,2.15-17.16-3.11-23.62-4.15-9.33-1.5-18.36-2.22-27.78-1.2-8.39.91-16.59,3.82-24.85,4.75-8.8,1-8.92-2.07-16.07-7.79C24.82,1.29,23,.89,16.93,2.65,14.81,3.27-.6,9.51,0,12.07s10.95-.52,13.5,2.62c1.55,1.9,4.29,15.83,5,18.84,3.82,16.57,1.16,33.51-.77,50.1-1.71,14.7,6.91,31,16.74,41.68C47.9,139.85,63.87,132.47,80.82,132.47Z"/><path class="cls-2" d="M118,115c2-15.11-11.34-22.41-18.86-33.73-9.76-14.69,2.93-24.9.52-40.07-1.28-8.1-6.43-14.9-8.11-22.87-.8-3.79.14-5.82-2.75-7.69-1.76-1.14-8.56-3.44-10.41-2-4,3-2,1-4.34,9.52a90.19,90.19,0,0,1-3.41,9.75c-3.21,8-6.32,14.88-4.4,23.61,1.41,6.4,5.7,12.33,4.94,19.17C70.35,77.81,64.5,83.93,60,89.16,49.59,101.38,45,107.61,49.45,124c2.62,9.71,3.17,13.39,13.88,12.91,8.07-.36,15.56-2.87,23.73-2.22,5.92.47,15.82,4.68,21.56,2.17C115.17,134,117.07,121.75,118,115Z"/><path class="cls-3" d="M37.4,57.15c9.18-8.61,17.68-6.43,23.48,4.61a1,1,0,0,1-.39,1.3c-7.2,3.85-16.24.06-22.93-4.17A1.11,1.11,0,0,1,37.4,57.15Z"/><path class="cls-4" d="M24.62,24.53c-1.4-6.4-7-17.86-.63-16.58a71.89,71.89,0,0,1,10.45,9.24.83.83,0,0,1-.13,1.18L25.95,25A.83.83,0,0,1,24.62,24.53Z"/><path class="cls-5" d="M89.8,99.63c-2.3-1.32-5.54-1.48-8.82-1.36h-.32c-3.28-.11-6.52,0-8.82,1.36-8.7,5-4.57,8.85,1.53,12.14,2.82,1.52,5.09,2.51,7.29,2.67H81c2.2-.16,4.47-1.14,7.29-2.67C94.37,108.48,98.49,104.6,89.8,99.63Z"/><path class="cls-4" d="M141.22,24.53c1.4-6.4,1.69-10.21.63-16.58a.83.83,0,0,0-1.4-.46,117.87,117.87,0,0,0-9.06,9.7.83.83,0,0,0,.13,1.18L139.89,25A.83.83,0,0,0,141.22,24.53Z"/><circle class="cls-5" cx="49.37" cy="57.95" r="5.69"/><path class="cls-3" d="M126.86,57.41C117.68,48.8,109.17,51,103.38,62a1,1,0,0,0,.39,1.3c7.2,3.85,16.24.06,22.93-4.17A1.11,1.11,0,0,0,126.86,57.41Z"/><circle class="cls-5" cx="114.74" cy="58.21" r="5.69"/></g></g></svg>