<svg xmlns="http://www.w3.org/2000/svg" xmlns:xlink="http://www.w3.org/1999/xlink" viewBox="0 0 209 185"><defs><style>.cls-1{fill:none;}.cls-2{font-size:34.78px;font-family:MyriadPro-Regular, Myriad Pro;}.cls-3{letter-spacing:-0.01em;}.cls-4{letter-spacing:-0.01em;}.cls-5{letter-spacing:0em;}.cls-6{fill:url(#linear-gradient);}</style><linearGradient id="linear-gradient" x1="16.92" y1="90.55" x2="191.2" y2="90.55" gradientUnits="userSpaceOnUse"><stop offset="0" stop-color="#6120bc"/><stop offset="1" stop-color="#ffab5f"/></linearGradient></defs><title>cubera-logo_1</title><g id="Layer_2" data-name="Layer 2"><g id="Layer_1-2" data-name="Layer 1"><rect class="cls-1" width="209" height="185"/><text class="cls-2" transform="translate(15.67 102.71)"><tspan class="cls-3">C</tspan><tspan x="19.79" y="0">ool </tspan><tspan class="cls-4" x="73.56" y="0">C</tspan><tspan x="93.31" y="0">ube</tspan><tspan class="cls-5" x="149.69" y="0">r</tspan><tspan x="160.89" y="0">a</tspan></text><path class="cls-6" d="M34.69,101.94a15,15,0,0,1-6.19,1.11c-6.61,0-11.58-4.17-11.58-11.86,0-7.34,5-12.31,12.24-12.31a12.57,12.57,0,0,1,5.56,1L34,82.4a11,11,0,0,0-4.73-1c-5.49,0-9.15,3.51-9.15,9.67,0,5.74,3.3,9.42,9,9.42a12.11,12.11,0,0,0,4.94-1Z"/><path class="cls-6" d="M53.23,94.15c0,6.22-4.31,8.94-8.38,8.94-4.56,0-8.07-3.34-8.07-8.66,0-5.63,3.69-8.94,8.35-8.94C50,85.49,53.23,89,53.23,94.15Zm-13.35.17c0,3.69,2.12,6.47,5.11,6.47S50.1,98,50.1,94.26c0-2.85-1.43-6.47-5-6.47S39.88,91.13,39.88,94.33Z"/><path class="cls-6" d="M72.33,94.15c0,6.22-4.31,8.94-8.38,8.94-4.56,0-8.07-3.34-8.07-8.66,0-5.63,3.69-8.94,8.35-8.94C69.06,85.49,72.33,89,72.33,94.15ZM59,94.33c0,3.69,2.12,6.47,5.11,6.47S69.2,98,69.2,94.26c0-2.85-1.43-6.47-5-6.47S59,91.13,59,94.33Z"/><path class="cls-6" d="M76.19,78h3.06v24.69H76.19Z"/><path class="cls-6" d="M108.25,101.94a15,15,0,0,1-6.19,1.11c-6.61,0-11.58-4.17-11.58-11.86,0-7.34,5-12.31,12.24-12.31a12.57,12.57,0,0,1,5.56,1l-.73,2.47a11,11,0,0,0-4.73-1c-5.49,0-9.15,3.51-9.15,9.67,0,5.74,3.3,9.42,9,9.42a12.11,12.11,0,0,0,4.94-1Z"/><path class="cls-6" d="M125.61,98.12c0,1.74,0,3.27.14,4.59H123l-.17-2.75h-.07a6.33,6.33,0,0,1-5.56,3.13c-2.64,0-5.81-1.46-5.81-7.37V85.88h3.06V95.2c0,3.2,1,5.36,3.76,5.36a4.42,4.42,0,0,0,4-2.78,4.47,4.47,0,0,0,.28-1.56V85.88h3.06Z"/><path class="cls-6" d="M130.55,102.71c.07-1.15.14-2.85.14-4.35V78h3V88.59h.07a6.27,6.27,0,0,1,5.74-3.1c4.17,0,7.13,3.48,7.09,8.59,0,6-3.79,9-7.55,9a6,6,0,0,1-5.63-3.17h-.1l-.14,2.78ZM133.71,96a5.75,5.75,0,0,0,.14,1.11,4.72,4.72,0,0,0,4.59,3.58c3.2,0,5.11-2.61,5.11-6.47,0-3.37-1.74-6.26-5-6.26a4.88,4.88,0,0,0-4.66,3.76,6,6,0,0,0-.17,1.25Z"/><path class="cls-6" d="M152.18,94.85c.07,4.14,2.71,5.84,5.77,5.84a11.06,11.06,0,0,0,4.66-.87l.52,2.19a13.64,13.64,0,0,1-5.6,1c-5.18,0-8.28-3.41-8.28-8.49s3-9.08,7.89-9.08c5.5,0,7,4.83,7,7.93a11.69,11.69,0,0,1-.1,1.43Zm9-2.19c0-1.95-.8-5-4.24-5-3.09,0-4.45,2.85-4.69,5Z"/><path class="cls-6" d="M167.9,91.13c0-2,0-3.69-.14-5.25h2.68l.1,3.3h.14a5.05,5.05,0,0,1,4.66-3.69,3.32,3.32,0,0,1,.87.1v2.89a4.6,4.6,0,0,0-1-.1c-2.16,0-3.69,1.63-4.1,3.93a8.64,8.64,0,0,0-.14,1.43v9h-3Z"/><path class="cls-6" d="M188.42,102.71l-.24-2.12h-.1a6.27,6.27,0,0,1-5.15,2.5,4.8,4.8,0,0,1-5.15-4.83c0-4.07,3.62-6.29,10.12-6.26v-.35c0-1.39-.38-3.89-3.83-3.89A8.39,8.39,0,0,0,179.69,89l-.7-2a10.44,10.44,0,0,1,5.53-1.5c5.15,0,6.4,3.51,6.4,6.89v6.29a23.66,23.66,0,0,0,.28,4ZM188,94.12c-3.34-.07-7.13.52-7.13,3.79a2.71,2.71,0,0,0,2.89,2.92A4.19,4.19,0,0,0,187.8,98a3.19,3.19,0,0,0,.17-1Z"/></g></g></svg>