<svg xmlns="http://www.w3.org/2000/svg" xmlns:xlink="http://www.w3.org/1999/xlink" viewBox="0 0 290 236.69"><defs><style>.cls-1{fill:url(#linear-gradient);}.cls-2{fill:#f9f8e5;}.cls-3{fill:#030200;}</style><linearGradient id="linear-gradient" y1="85.01" x2="290" y2="85.01" gradientTransform="matrix(1, 0, 0, -1, 0, 238)" gradientUnits="userSpaceOnUse"><stop offset="0" stop-color="#a52121"/><stop offset="0.52" stop-color="#e9003a"/><stop offset="1" stop-color="#a92525"/></linearGradient></defs><title>sef-logo</title><g id="Layer_2" data-name="Layer 2"><g id="Layer_1-2" data-name="Layer 1"><g id="Layer_2-2" data-name="Layer 2"><g id="Layer_1-2-2" data-name="Layer 1-2"><path class="cls-1" d="M58.66,236.65a24.75,24.75,0,0,1-7-.74C35.53,231.08,19.48,226,3.31,221.24c-2.92-.86-4-1.76-2.87-4.88Q26.08,146.1,51.57,75.8c.24-.66,84.83-5.42,91.48-6.51.66-.11-53,5.88-53,6.61-.33,37.2-11.8,48.64-12.08,85.39,0,6.07,11.77,11,17.67,11,55.25-.24,63.78-10.24,119-10,5.74,0-39.94-64.2-40-70-.28-34.25,1.85,18.25,1.85-16,0-3.09-7.95-.91,0-3,.72-.19,57.07.88,57.32,1.61q27.64,69.21,55.36,138.29c1.56,3.87.9,5.24-2.9,6.46-16.22,5.2-32.36,10.63-48.5,16.08a23.23,23.23,0,0,1-7.64.94"/><path class="cls-2" d="M225.44,90.14c0,28.11-.12,56.23.11,84.34,0,4.73-.91,6.35-6.38,6.33q-75.21-.33-150.43,0c-4.5,0-6.44-.53-6.42-5.53q.3-85,0-170C62.36,1.41,63,0,67.58,0Q143.84.27,220.1,0c5.11,0,5.42,2,5.41,5.8C225.38,33.92,225.44,62,225.44,90.14Z"/><path class="cls-3" d="M143.34,137.5c-17.38,0-34.77-.34-52.14.18-6.38.19-6.62-2.58-6.26-6.93.31-3.74-1.85-8.05,5.84-8q52.48.57,105,0c7.58-.09,5.77,4,6.06,7.91.32,4.42,0,7.15-6.34,7C178.11,137.19,160.72,137.5,143.34,137.5Z"/><path class="cls-3" d="M144.1,50.93c-17.63,0-35.26-.29-52.88.15-6.54.16-5.79-3.35-5.52-7,.25-3.39-2.23-7.87,5.32-7.8q52.88.49,105.76,0c7-.08,6,3.38,5.92,7.31-.1,3.72,1.41,7.73-5.72,7.53C179.37,50.61,161.73,50.93,144.1,50.93Z"/><path class="cls-3" d="M142.76,94.86c-17.39,0-34.78-.15-52.16.1-4.48.06-5.87-1-5.74-5.36.28-9.25,0-9.25,10-9.25,33.62,0,67.24.24,100.85-.18,7.48-.09,5.92,3.85,6.16,7.81.26,4.29.32,7.24-6.2,7.05C178,94.53,160.38,94.86,142.76,94.86Z"/></g></g></g></g></svg>