<svg xmlns="http://www.w3.org/2000/svg" xmlns:xlink="http://www.w3.org/1999/xlink" viewBox="0 0 168.87 128.8"><defs><style>.cls-1,.cls-2,.cls-3,.cls-4,.cls-5,.cls-6,.cls-7,.cls-8,.cls-9{fill:none;stroke-miterlimit:10;stroke-width:4px;}.cls-1{stroke:url(#linear-gradient);}.cls-2{stroke:url(#linear-gradient-2);}.cls-3{stroke:url(#linear-gradient-3);}.cls-4{stroke:url(#linear-gradient-4);}.cls-5{stroke:url(#linear-gradient-5);}.cls-6{stroke:url(#linear-gradient-6);}.cls-7{stroke:url(#linear-gradient-7);}.cls-8{stroke:url(#linear-gradient-8);}.cls-9{stroke:url(#linear-gradient-9);}</style><linearGradient id="linear-gradient" y1="78.69" x2="168.87" y2="78.69" gradientUnits="userSpaceOnUse"><stop offset="0" stop-color="#8733aa"/><stop offset="1" stop-color="#0a0a99"/></linearGradient><linearGradient id="linear-gradient-2" y1="51.1" x2="168.87" y2="51.1" xlink:href="#linear-gradient"/><linearGradient id="linear-gradient-3" x1="49.16" y1="23.19" x2="119.71" y2="23.19" xlink:href="#linear-gradient"/><linearGradient id="linear-gradient-4" x1="17.31" y1="103.52" x2="151.55" y2="103.52" xlink:href="#linear-gradient"/><linearGradient id="linear-gradient-5" x1="61.26" y1="38.93" x2="107.61" y2="38.93" xlink:href="#linear-gradient"/><linearGradient id="linear-gradient-6" x1="49.16" y1="105.46" x2="119.71" y2="105.46" xlink:href="#linear-gradient"/><linearGradient id="linear-gradient-7" x1="17.31" y1="25.28" x2="151.55" y2="25.28" xlink:href="#linear-gradient"/><linearGradient id="linear-gradient-8" x1="61.26" y1="90.76" x2="107.61" y2="90.76" xlink:href="#linear-gradient"/><linearGradient id="linear-gradient-9" x1="67.01" y1="64.99" x2="101.85" y2="64.99" xlink:href="#linear-gradient"/></defs><title>toruscms-logo</title><g id="Layer_2" data-name="Layer 2"><g id="Layer_1-2" data-name="Layer 1"><ellipse class="cls-1" cx="84.43" cy="78.69" rx="82.43" ry="29.47"/><ellipse class="cls-2" cx="84.43" cy="51.1" rx="82.43" ry="29.47"/><ellipse class="cls-3" cx="84.43" cy="23.19" rx="33.28" ry="13.96"/><ellipse class="cls-4" cx="84.43" cy="103.52" rx="65.12" ry="23.28"/><ellipse class="cls-5" cx="84.43" cy="38.93" rx="21.18" ry="10.02"/><ellipse class="cls-6" cx="84.43" cy="105.46" rx="33.28" ry="13.96"/><ellipse class="cls-7" cx="84.43" cy="25.28" rx="65.12" ry="23.28"/><ellipse class="cls-8" cx="84.43" cy="90.76" rx="21.18" ry="10.02"/><ellipse class="cls-9" cx="84.43" cy="64.99" rx="15.42" ry="15.81"/></g></g></svg>