<svg xmlns="http://www.w3.org/2000/svg" xmlns:xlink="http://www.w3.org/1999/xlink" viewBox="0 0 773.47 599"><defs><style>.cls-1{fill:#160723;}.cls-2{font-size:173px;font-family:MyriadPro-Regular, Myriad Pro;}.cls-3{letter-spacing:-0.01em;}.cls-4{letter-spacing:0em;}.cls-5{letter-spacing:-0.01em;}.cls-6{letter-spacing:0em;}.cls-7{fill:url(#linear-gradient);}</style><linearGradient id="linear-gradient" x1="134.07" y1="296.23" x2="635.07" y2="296.23" gradientUnits="userSpaceOnUse"><stop offset="0" stop-color="#6120bc"/><stop offset="1" stop-color="#ffab5f"/></linearGradient></defs><title>cuber-sq-logo</title><g id="Layer_2" data-name="Layer 2"><g id="Layer_1-2" data-name="Layer 1"><rect class="cls-1" width="773.47" height="599"/><text class="cls-2" transform="translate(203.79 252.89)"><tspan class="cls-3">C<tspan class="cls-4" x="98.44" y="0">ool </tspan></tspan><tspan class="cls-5" x="-75.95" y="207.6">C</tspan><tspan x="22.32" y="207.6">ube</tspan><tspan class="cls-6" x="302.74" y="207.6">r</tspan><tspan x="358.45" y="207.6">a</tspan></text><path class="cls-7" d="M298.42,249.09c-5.54,2.77-16.61,5.54-30.79,5.54-32.87,0-57.61-20.76-57.61-59,0-36.5,24.74-61.24,60.9-61.24,14.53,0,23.7,3.11,27.68,5.19L295,151.86c-5.71-2.77-13.84-4.84-23.53-4.84-27.33,0-45.5,17.47-45.5,48.1,0,28.55,16.44,46.88,44.81,46.88,9.17,0,18.51-1.9,24.57-4.84Z"/><path class="cls-7" d="M390.63,210.33c0,31-21.45,44.46-41.69,44.46-22.66,0-40.14-16.61-40.14-43.08,0-28,18.34-44.46,41.52-44.46C374.37,167.26,390.63,184.73,390.63,210.33Zm-66.43.86c0,18.34,10.55,32.18,25.43,32.18,14.53,0,25.43-13.67,25.43-32.52,0-14.19-7.09-32.18-25.09-32.18S324.2,195.28,324.2,211.2Z"/><path class="cls-7" d="M485.61,210.33c0,31-21.45,44.46-41.69,44.46-22.66,0-40.14-16.61-40.14-43.08,0-28,18.34-44.46,41.52-44.46C469.34,167.26,485.61,184.73,485.61,210.33Zm-66.43.86c0,18.34,10.55,32.18,25.43,32.18,14.53,0,25.43-13.67,25.43-32.52,0-14.19-7.09-32.18-25.09-32.18S419.17,195.28,419.17,211.2Z"/><path class="cls-7" d="M504.8,130.06H520V252.89H504.8Z"/><path class="cls-7" d="M222.48,456.69c-5.54,2.77-16.61,5.54-30.79,5.54-32.87,0-57.61-20.76-57.61-59,0-36.5,24.74-61.24,60.9-61.24,14.53,0,23.7,3.11,27.68,5.19L219,359.46c-5.71-2.77-13.84-4.84-23.53-4.84-27.33,0-45.5,17.47-45.5,48.1,0,28.55,16.44,46.88,44.81,46.88,9.17,0,18.51-1.9,24.57-4.84Z"/><path class="cls-7" d="M308.8,437.65c0,8.65.17,16.26.69,22.84H296l-.87-13.67h-.35a31.51,31.51,0,0,1-27.68,15.57c-13.15,0-28.89-7.27-28.89-36.68v-49h15.22v46.37c0,15.92,4.84,26.64,18.68,26.64,10.21,0,17.3-7.09,20.07-13.84a22.28,22.28,0,0,0,1.38-7.79V376.76H308.8Z"/><path class="cls-7" d="M333.36,460.49c.35-5.71.69-14.19.69-21.63V337.66h15.05v52.59h.35c5.36-9.34,15.05-15.4,28.55-15.4,20.76,0,35.47,17.3,35.29,42.73,0,29.93-18.86,44.81-37.54,44.81-12.11,0-21.8-4.67-28-15.74h-.52l-.69,13.84Zm15.74-33.56a28.46,28.46,0,0,0,.69,5.54c2.94,10.55,11.76,17.82,22.84,17.82,15.92,0,25.43-13,25.43-32.18,0-16.78-8.65-31.14-24.91-31.14-10.38,0-20.07,7.09-23.18,18.68a30,30,0,0,0-.87,6.23Z"/><path class="cls-7" d="M441,421.39c.35,20.59,13.49,29.06,28.72,29.06,10.9,0,17.47-1.9,23.18-4.33l2.59,10.9c-5.36,2.42-14.53,5.19-27.85,5.19-25.78,0-41.17-17-41.17-42.21s14.88-45.15,39.27-45.15c27.33,0,34.6,24,34.6,39.44a57.45,57.45,0,0,1-.52,7.09Zm44.63-10.9c.17-9.69-4-24.74-21.11-24.74-15.4,0-22.14,14.19-23.36,24.74Z"/><path class="cls-7" d="M519.16,402.88c0-9.86-.17-18.34-.69-26.12h13.32l.52,16.44H533c3.81-11.25,13-18.34,23.18-18.34a16.48,16.48,0,0,1,4.33.52v14.36a22.9,22.9,0,0,0-5.19-.52c-10.73,0-18.34,8.13-20.41,19.55a42.78,42.78,0,0,0-.69,7.09v44.63H519.16Z"/><path class="cls-7" d="M621.23,460.49,620,449.94h-.52c-4.67,6.57-13.67,12.46-25.6,12.46-17,0-25.61-11.94-25.61-24,0-20.24,18-31.31,50.34-31.14v-1.73c0-6.92-1.9-19.38-19-19.38a41.72,41.72,0,0,0-21.8,6.23l-3.46-10c6.92-4.5,17-7.44,27.51-7.44,25.6,0,31.83,17.47,31.83,34.25v31.31a117.89,117.89,0,0,0,1.38,20.07ZM619,417.76c-16.61-.35-35.47,2.6-35.47,18.86,0,9.86,6.57,14.53,14.36,14.53a20.83,20.83,0,0,0,20.24-14,15.88,15.88,0,0,0,.87-4.84Z"/></g></g></svg>